# xmcd
#
# Track frame offsets:
#	150
#	14217
#	30131
#	37972
#	52365
#	74374
#	87600
#	102126
#	113025
#	127585
#	139405
#
# Disc length: 2070 seconds
#
# Revision: 0
# Processed by: cddbd v1.5.2PL0 Copyright (c) Steve Scherf et al.
# Submitted via: EasyCDDAExtractor 16.0.0.1
#
DISCID=9508140b
DTITLE=Juustop‰‰t - J‰ljet
DYEAR=2015
DGENRE=
TTITLE0=Mit‰ teetk‰‰n
TTITLE1=Kansanlaulu
TTITLE2=J‰ljet
TTITLE3=Painajainen
TTITLE4=Juokse nopeempaa
TTITLE5=Peilityyni
TTITLE6=Ei valtakuntaa
TTITLE7=Lasken kymmeneen
TTITLE8=Reunalla maan
TTITLE9=Vitun kyps‰
TTITLE10=Asiat jotka haluan
EXTD=
EXTT0=
EXTT1=
EXTT2=
EXTT3=
EXTT4=
EXTT5=
EXTT6=
EXTT7=
EXTT8=
EXTT9=
EXTT10=
PLAYORDER=
